<svg width="124" height="119" viewBox="0 0 124 119" fill="none" xmlns="http://www.w3.org/2000/svg">
<path d="M30.0087 30.7421V26.9136H18.0749L10.3853 39.3274L13.7734 41.2991L20.3146 30.7421H30.0087Z" fill="#F28F19"/>
<path d="M67.0572 60.4414L70.4474 58.4697L62.7578 46.0559H50.824V49.8844H60.5181L67.0572 60.4414Z" fill="#F28F19"/>
<path d="M79.0939 57.5413L67.2333 38.399H47.4655L35.6049 19.2567H13.5994L0.552734 40.3132L12.4134 59.4555L0.552734 78.5978L13.5994 99.6544H33.3672L45.2278 118.797H67.2353L79.0959 99.6544H98.8636L111.91 78.5978L98.8636 57.5413H79.0939ZM47.4675 42.2275H64.9956L75.6701 59.4555L70.3328 68.0696L64.9956 76.6836H47.4675L42.1302 68.0696L36.7929 59.4555L42.1302 50.8415L47.4675 42.2275ZM5.16257 40.3132L15.8371 23.0852H33.3652L44.0398 40.3132L38.7025 48.9273L33.3652 57.5413H15.8371L5.16257 40.3132ZM33.3652 95.8259H15.8371L5.16257 78.5978L15.8371 61.3698H33.3652L38.7025 69.9838L44.0398 78.5978L38.7025 87.2119L33.3652 95.8259ZM64.9956 114.968H47.4675L36.7929 97.7401L42.1302 89.1261L47.4675 80.5121H64.9956L70.3328 89.1261L75.6701 97.7401L64.9956 114.968ZM96.6239 95.8259H79.0959L73.7586 87.2119L68.4213 78.5978L73.7586 69.9838L79.0959 61.3698H96.6239L107.299 78.5978L96.6239 95.8259Z" fill="#F28F19"/>
<path d="M77.6408 78.5978L84.1464 68.0982L80.7562 66.1266L73.031 78.5978L81.3315 91.9974H93.7891V88.1689H83.5712L77.6408 78.5978Z" fill="#F28F19"/>
<path d="M13.7734 77.612L10.3853 79.5837L18.0749 91.9974H30.0087V88.169H20.3146L13.7734 77.612Z" fill="#F28F19"/>
<path d="M62.1607 84.3406H58.2072V88.169H62.1607V84.3406Z" fill="#F28F19"/>
<path d="M41.4027 97.7402L49.1279 110.211L52.5181 108.24L46.0125 97.7402L51.9429 88.169H54.2537V84.3406H49.7032L41.4027 97.7402Z" fill="#F28F19"/>
<path d="M116.872 24.5132C112.885 20.8321 108.241 18.7456 104.306 18.5274C104.758 17.5779 105.021 16.5327 105.021 15.4263C105.021 13.7858 104.456 12.2736 103.513 11.0274L103.936 10.2445C105.584 7.20279 108.425 4.93252 111.936 3.85098L110.74 0.202454C106.231 1.59218 102.57 4.5267 100.435 8.46618L100.384 8.55998C99.3043 8.07185 98.1063 7.77132 96.8254 7.77132C95.5444 7.77132 94.3465 8.07185 93.2672 8.5619L93.2158 8.4681C91.0829 4.5267 87.4239 1.59218 82.9129 0.204368L81.7169 3.85289C85.2277 4.93443 88.0683 7.20471 89.7149 10.2464L90.1399 11.0293C89.195 12.2755 88.6317 13.7897 88.6317 15.4282C88.6317 16.6189 88.9479 17.7311 89.4678 18.736C85.9413 19.3735 82.0371 21.3528 78.6134 24.5132C74.4997 28.3091 72.0446 32.9281 72.0446 36.8619C72.0446 39.0249 72.7957 40.8607 74.217 42.1719C75.6502 43.4928 77.6072 44.1264 79.8311 44.1264C81.5133 44.1264 83.3497 43.7435 85.2217 43.0429C86.9435 50.562 91.496 55.6271 96.8254 55.6271C102.327 55.6271 107 50.1792 108.585 42.327C111.029 43.4966 113.47 44.1264 115.654 44.1264C117.878 44.1264 119.835 43.4947 121.268 42.1719C122.689 40.8607 123.441 39.0249 123.441 36.8619C123.441 32.9281 120.986 28.3091 116.872 24.5132ZM96.8274 11.5998C99.1659 11.5998 101.07 13.3188 101.07 15.4282C101.07 17.5377 99.1659 19.2567 96.8274 19.2567C94.4888 19.2567 92.5852 17.5377 92.5852 15.4282C92.5852 13.3188 94.4888 11.5998 96.8274 11.5998ZM99.3319 34.6873C98.2941 34.6184 97.2544 34.5954 96.2067 34.6126C96.7859 33.8336 97.3038 33.0449 97.7426 32.2486C98.1953 33.0698 98.731 33.8852 99.3319 34.6873ZM76.945 39.402C76.3164 38.822 75.9981 37.9664 75.9981 36.8619C75.9981 33.9963 78.046 30.3267 81.3433 27.2831C86.5877 22.442 92.6129 21.259 94.7399 23.223C95.3665 23.803 95.6868 24.6567 95.6868 25.7612C95.6868 28.6249 93.6388 32.2964 90.3416 35.342C85.0952 40.1869 79.072 41.3699 76.945 39.402ZM96.8254 51.7986C94.477 51.7986 92.2215 49.804 90.644 46.6589C94.5323 45.897 99.1066 45.8913 102.997 46.6551C101.423 49.7887 99.1817 51.7986 96.8254 51.7986ZM104.369 43.0353C99.6423 42.0092 94.0085 42.0035 89.282 43.0238C89.1259 42.4514 88.9835 41.8657 88.8709 41.2569C90.0648 40.5372 91.2371 39.6873 92.3697 38.711C96.0446 38.2076 100.162 38.3607 103.612 39.1341C104.054 39.4978 104.503 39.8385 104.958 40.1639C104.814 41.1593 104.618 42.1222 104.369 43.0353ZM118.538 39.402C116.419 41.368 110.39 40.185 105.144 35.342C101.846 32.2964 99.7985 28.6249 99.7985 25.7612C99.7985 24.6567 100.117 23.803 100.745 23.223C101.392 22.6257 102.402 22.3176 103.641 22.3176C106.47 22.3176 110.495 23.9159 114.142 27.2831C117.439 30.3267 119.487 33.9963 119.487 36.8619C119.487 37.9664 119.169 38.822 118.538 39.402Z" fill="#F28F19"/>
</svg>
