<svg width="124" height="107" viewBox="0 0 124 107" fill="none" xmlns="http://www.w3.org/2000/svg">
<path d="M120.333 58.4908C126.558 52.4896 124.635 40.3504 113.852 40.3504L85.4811 40.3688C86.5585 34.5509 88.1191 24.9065 88.0574 23.9959C87.4616 15.3718 81.7847 4.8759 81.5391 4.4463C80.5037 2.5791 75.276 0.0475597 70.015 1.13229C63.2132 2.54228 62.5185 6.74386 62.5462 7.90224C62.5462 7.90224 62.8393 19.3962 62.8678 22.4632C59.6158 29.3797 48.4031 47.5561 45.0046 48.9569C44.1918 48.4805 43.2696 48.2243 42.3103 48.2243H6.46649C3.42207 48.2243 0.973389 50.6085 0.973389 53.5428L0.978142 101.514C1.19124 104.1 3.4601 106.128 6.1401 106.128H38.335C41.1901 106.128 43.5113 103.881 43.5113 101.116V99.5233C43.5113 99.5233 44.7075 99.4366 45.2509 99.7749C47.3209 101.048 49.8789 102.649 53.2157 102.649H101.26C119.222 102.649 117.294 87.21 115.654 85.1042C118.688 81.9045 120.565 76.2607 118.003 71.8021C119.969 69.7838 123.43 64.2359 120.333 58.4908ZM37.2291 101.107H6.1306V53.2314H37.2291V101.107ZM111.952 58.0789L111.659 59.2641C119.936 61.5433 115.531 70.7811 109.593 71.3802L109.3 72.5654C117.236 74.5201 113.45 84.0318 107.234 84.6815L106.941 85.8621C113.422 86.8924 111.853 97.6031 102.034 97.6031L53.1666 97.6215C49.7158 97.6215 46.5723 93.8135 44.0341 93.8135H41.8191V56.9619C44.5799 55.3049 47.9737 53.1539 49.8599 51.602C53.424 48.6585 68.0116 25.8317 68.0116 22.9749C68.0116 20.1181 67.6899 7.75955 67.6899 7.75955C67.6899 7.75955 70.5498 4.18931 76.9357 6.79373C76.9357 6.79373 82.3099 16.5524 82.8581 24.3296C82.8581 24.3296 80.438 40.3504 79.138 45.3767H113.016C121.34 45.3859 119.752 56.8937 111.952 58.0789Z" fill="#F28F19"/>
</svg>
