<svg width="0" height="0" class="hidden">
  <symbol viewBox="0 0 124 107" fill="none" xmlns="http://www.w3.org/2000/svg" id="like">
    <path d="M120.333 58.49c6.225-6 4.302-18.14-6.481-18.14l-28.37.019c1.076-5.818 2.637-15.462 2.575-16.373-.595-8.624-6.272-19.12-6.518-19.55C80.504 2.58 75.276.048 70.015 1.132c-6.802 1.41-7.496 5.612-7.469 6.77 0 0 .293 11.494.322 14.561-3.252 6.917-14.465 25.093-17.863 26.494a5.31 5.31 0 0 0-2.695-.733H6.466c-3.044 0-5.493 2.385-5.493 5.319l.005 47.971c.213 2.586 2.482 4.614 5.162 4.614h32.195c2.855 0 5.176-2.247 5.176-5.012v-1.593s1.197-.086 1.74.252c2.07 1.273 4.628 2.874 7.965 2.874h48.044c17.962 0 16.034-15.439 14.394-17.545 3.034-3.2 4.911-8.843 2.349-13.302 1.966-2.018 5.427-7.566 2.33-13.311zm-83.104 42.617H6.131V53.231h31.098v47.876zm74.723-43.028l-.293 1.185c8.277 2.28 3.872 11.517-2.066 12.116l-.293 1.185c7.936 1.955 4.15 11.467-2.066 12.117l-.293 1.18c6.481 1.03 4.912 11.741-4.907 11.741l-48.867.019c-3.451 0-6.595-3.808-9.133-3.808H41.82V56.962c2.76-1.657 6.155-3.808 8.04-5.36 3.565-2.944 18.153-25.77 18.153-28.627 0-2.857-.322-15.215-.322-15.215s2.86-3.57 9.246-.966c0 0 5.374 9.758 5.922 17.536 0 0-2.42 16.02-3.72 21.047h33.878c8.324.009 6.736 11.517-1.064 12.702z"
      fill="#F28F19"></path>
  </symbol>
  <symbol viewBox="0 0 124 119" fill="none" xmlns="http://www.w3.org/2000/svg" id="bee">
    <path d="M30.009 30.742v-3.828H18.075l-7.69 12.413 3.388 1.972 6.542-10.557h9.694zm37.048 29.699l3.39-1.971-7.69-12.414H50.825v3.828h9.694l6.54 10.557z" fill="#F28F19"></path>
    <path d="M79.094 57.541L67.234 38.4H47.465l-11.86-19.143H13.599L.553 40.313l11.86 19.142L.553 78.599l13.046 21.056h19.768l11.86 19.143h22.008l11.86-19.143h19.769l13.046-21.056L98.864 57.54h-19.77zM47.468 42.228h17.528L75.67 59.454l-5.337 8.615-5.337 8.614H47.468L42.13 68.07l-5.337-8.614 5.337-8.614 5.337-8.614zM5.163 40.313l10.674-17.228h17.528L44.04 40.313l-5.337 8.614-5.338 8.614H15.837L5.163 40.313zm28.202 55.513H15.837L5.163 78.598 15.837 61.37h17.528l5.337 8.614 5.338 8.614-5.337 8.614-5.338 8.614zm31.63 19.142H47.468L36.794 97.74l5.337-8.614 5.337-8.614h17.529l5.337 8.614 5.337 8.614-10.674 17.228zm31.629-19.142H79.096l-5.337-8.614-5.338-8.614 5.338-8.614 5.337-8.614h17.528l10.675 17.228-10.675 17.228z"
      fill="#F28F19"></path>
    <path d="M77.64 78.598l6.506-10.5-3.39-1.971-7.725 12.47 8.3 13.4H93.79V88.17H83.571l-5.93-9.571zm-63.867-.986l-3.388 1.972 7.69 12.413h11.934V88.17h-9.694l-6.542-10.557zM62.16 84.34h-3.953v3.829h3.954v-3.828zm-20.757 13.4l7.725 12.471 3.39-1.971-6.505-10.5 5.93-9.571h2.31v-3.828h-4.55l-8.3 13.4zm75.469-73.227c-3.987-3.68-8.631-5.767-12.566-5.986.452-.95.715-1.994.715-3.1 0-1.641-.565-3.153-1.508-4.4l.423-.782c1.648-3.042 4.489-5.312 8-6.394L110.74.202c-4.509 1.39-8.17 4.325-10.305 8.264l-.051.094a8.61 8.61 0 0 0-3.559-.789c-1.28 0-2.478.3-3.558.79l-.051-.093C91.083 4.527 87.424 1.592 82.913.204l-1.196 3.649c3.51 1.081 6.351 3.352 7.998 6.393l.425.783c-.945 1.246-1.508 2.76-1.508 4.4 0 1.19.316 2.302.836 3.307-3.527.637-7.43 2.617-10.855 5.777-4.113 3.796-6.568 8.415-6.568 12.349 0 2.163.75 3.999 2.172 5.31 1.433 1.32 3.39 1.954 5.614 1.954 1.682 0 3.519-.383 5.39-1.083 1.722 7.519 6.275 12.584 11.604 12.584 5.502 0 10.175-5.448 11.76-13.3 2.444 1.17 4.885 1.8 7.069 1.8 2.224 0 4.181-.632 5.614-1.955 1.421-1.311 2.173-3.147 2.173-5.31 0-3.934-2.455-8.553-6.569-12.349zM96.827 11.6c2.339 0 4.243 1.719 4.243 3.828 0 2.11-1.904 3.829-4.243 3.829-2.338 0-4.242-1.72-4.242-3.829 0-2.11 1.904-3.828 4.242-3.828zm2.505 23.087a37.757 37.757 0 0 0-3.125-.074 20.852 20.852 0 0 0 1.536-2.364c.452.82.988 1.636 1.589 2.438zm-22.387 4.715c-.629-.58-.947-1.436-.947-2.54 0-2.866 2.048-6.535 5.345-9.579 5.245-4.841 11.27-6.024 13.397-4.06.627.58.947 1.434.947 2.538 0 2.864-2.048 6.535-5.345 9.581-5.247 4.845-11.27 6.028-13.397 4.06zm19.88 12.397c-2.348 0-4.603-1.995-6.181-5.14 3.888-.762 8.463-.768 12.353-.004-1.574 3.134-3.815 5.144-6.172 5.144zm7.544-8.764c-4.727-1.026-10.36-1.031-15.087-.011a21.68 21.68 0 0 1-.411-1.767 25.663 25.663 0 0 0 3.499-2.546c3.675-.503 7.792-.35 11.242.423.442.364.891.705 1.346 1.03a24.01 24.01 0 0 1-.589 2.871zm14.169-3.633c-2.119 1.966-8.148.783-13.394-4.06-3.298-3.046-5.346-6.717-5.346-9.58 0-1.105.319-1.959.947-2.539.647-.597 1.657-.905 2.896-.905 2.829 0 6.854 1.598 10.501 4.965 3.297 3.044 5.345 6.713 5.345 9.579 0 1.104-.318 1.96-.949 2.54z"
      fill="#F28F19"></path>
  </symbol>
</svg>