<svg width="124" height="83" viewBox="0 0 124 83" fill="none" xmlns="http://www.w3.org/2000/svg">
<path d="M101.279 60.2546C98.2764 60.2546 95.4237 61.3935 93.2718 63.4531C91.1198 65.537 89.9187 68.2509 89.9187 71.1587C89.9187 74.0664 91.0947 76.7803 93.2718 78.8642C95.4488 80.9239 98.2764 82.0628 101.279 82.0628C107.435 82.0628 112.439 77.168 112.439 71.1587C112.439 65.1493 107.435 60.2546 101.279 60.2546ZM101.279 77.2165C97.826 77.2165 94.9233 74.4541 94.9233 71.1587C94.9233 67.8632 97.826 65.1009 101.279 65.1009C104.682 65.1009 107.435 67.8148 107.435 71.1587C107.435 74.5026 104.682 77.2165 101.279 77.2165ZM104.182 23.9318C103.731 23.5199 103.131 23.3018 102.505 23.3018H89.6684C88.2922 23.3018 87.1661 24.3922 87.1661 25.725V45.5946C87.1661 46.9274 88.2922 48.0178 89.6684 48.0178H110.037C111.413 48.0178 112.539 46.9274 112.539 45.5946V32.2917C112.539 31.6132 112.239 30.9589 111.714 30.4985L104.182 23.9318ZM107.535 43.1715H92.1707V28.1239H101.529L107.535 33.3578V43.1715ZM40.1729 60.2546C37.1701 60.2546 34.3175 61.3935 32.1655 63.4531C30.0135 65.537 28.8124 68.2509 28.8124 71.1587C28.8124 74.0664 29.9885 76.7803 32.1655 78.8642C34.3425 80.9239 37.1701 82.0628 40.1729 82.0628C46.3285 82.0628 51.3331 77.168 51.3331 71.1587C51.3331 65.1493 46.3285 60.2546 40.1729 60.2546ZM40.1729 77.2165C36.7197 77.2165 33.817 74.4541 33.817 71.1587C33.817 67.8632 36.7197 65.1009 40.1729 65.1009C43.576 65.1009 46.3285 67.8148 46.3285 71.1587C46.3285 74.5026 43.576 77.2165 40.1729 77.2165ZM23.4825 63.235H18.4529V56.7895C18.4529 55.4568 17.3268 54.3664 15.9506 54.3664C14.5743 54.3664 13.4483 55.4568 13.4483 56.7895V65.6582C13.4483 66.9909 14.5743 68.0813 15.9506 68.0813H23.4825C24.8588 68.0813 25.9848 66.9909 25.9848 65.6582C25.9848 64.3255 24.8588 63.235 23.4825 63.235ZM36.1692 50.029C36.1692 48.6963 35.0432 47.6058 33.6669 47.6058H3.31395C1.93768 47.6058 0.811646 48.6963 0.811646 50.029C0.811646 51.3617 1.93768 52.4521 3.31395 52.4521H33.6669C35.0432 52.4521 36.1692 51.3859 36.1692 50.029ZM8.39362 41.2815L38.7466 41.4511C40.1228 41.4511 41.2489 40.3849 41.2739 39.0522C41.2989 37.6952 40.1729 36.6048 38.7966 36.6048L8.44367 36.4352C8.41865 36.4352 8.41865 36.4352 8.41865 36.4352C7.04238 36.4352 5.91634 37.5014 5.91634 38.8341C5.89132 40.1911 7.01736 41.2815 8.39362 41.2815ZM13.4983 30.2805H43.8513C45.2275 30.2805 46.3536 29.19 46.3536 27.8573C46.3536 26.5246 45.2275 25.4342 43.8513 25.4342H13.4983C12.1221 25.4342 10.996 26.5246 10.996 27.8573C10.996 29.19 12.1221 30.2805 13.4983 30.2805ZM122.774 27.0092L104.857 12.6401C104.407 12.2766 103.856 12.0827 103.256 12.0827H82.1866V3.35947C82.1866 2.02675 81.0605 0.93634 79.6842 0.93634H15.9506C14.5743 0.93634 13.4483 2.02675 13.4483 3.35947V21.0968C13.4483 22.4295 14.5743 23.5199 15.9506 23.5199C17.3268 23.5199 18.4529 22.4295 18.4529 21.0968V5.7826H77.207V63.235H56.6881C55.3118 63.235 54.1858 64.3255 54.1858 65.6582C54.1858 66.9909 55.3118 68.0813 56.6881 68.0813H87.2412C88.6175 68.0813 89.7435 66.9909 89.7435 65.6582C89.7435 64.3255 88.6175 63.235 87.2412 63.235H82.2116V16.929H102.38L118.695 30.0139L118.52 63.1866H115.918C114.541 63.1866 113.415 64.277 113.415 65.6097C113.415 66.9424 114.541 68.0328 115.918 68.0328H120.997C122.374 68.0328 123.5 66.9667 123.5 65.6339L123.7 28.8993C123.675 28.1723 123.349 27.4696 122.774 27.0092Z" fill="#F28F19"/>
</svg>
